<?xml version="1.0" encoding="UTF-8" ?>
<!DOCTYPE svg PUBLIC "-//W3C//DTD SVG 1.1//EN" "http://www.w3.org/Graphics/SVG/1.1/DTD/svg11.dtd">
<svg width="614pt" height="614pt" viewBox="0 0 614 614" version="1.1" xmlns="http://www.w3.org/2000/svg">
<g id="#000000ff">
<path fill="#000000" opacity="1.00" d=" M 357.41 145.52 C 372.99 128.28 395.81 118.17 418.95 117.37 C 437.44 117.83 455.84 124.16 470.40 135.63 C 485.99 147.82 496.30 165.48 503.33 183.71 C 511.85 206.18 514.92 230.25 516.52 254.10 C 517.44 266.51 516.32 278.94 516.81 291.37 C 531.64 298.20 545.56 307.29 557.21 318.77 C 565.19 327.10 572.70 338.02 571.47 350.10 C 569.62 361.18 564.84 371.53 559.20 381.16 C 548.87 398.84 535.26 414.43 520.18 428.20 C 494.19 452.13 463.35 470.48 430.50 483.33 C 395.90 496.75 359.04 504.21 321.98 505.79 C 304.96 506.95 287.76 506.74 270.92 503.81 C 237.58 500.40 205.16 491.00 173.93 479.11 C 161.42 473.69 149.14 467.62 137.63 460.29 C 122.92 451.36 108.54 441.75 95.64 430.32 C 86.54 422.03 77.83 413.01 71.83 402.16 C 69.29 397.58 68.19 391.99 69.89 386.92 C 75.28 370.41 85.72 356.30 95.40 342.10 C 79.74 308.51 70.12 271.18 73.36 233.94 C 75.97 206.53 85.31 178.68 104.68 158.50 C 115.28 147.30 129.20 139.25 144.38 136.27 C 165.14 131.81 187.62 136.10 205.30 147.85 C 223.54 160.12 236.45 178.91 245.11 198.84 C 251.74 214.07 256.41 230.14 259.21 246.50 C 280.10 242.20 301.45 240.62 322.75 240.41 C 323.72 206.32 333.69 170.91 357.41 145.52 M 372.75 186.87 C 362.61 200.29 356.36 216.29 352.85 232.64 C 347.39 257.25 348.79 282.90 353.96 307.42 C 392.56 287.08 431.24 266.36 465.99 239.78 C 458.78 218.31 449.56 196.09 431.63 181.30 C 422.74 174.20 411.60 168.45 399.89 169.65 C 388.89 171.20 379.30 178.11 372.75 186.87 M 127.59 182.59 C 120.96 186.58 116.44 193.11 112.75 199.74 C 103.59 216.54 101.36 236.09 101.42 254.94 C 100.91 257.95 104.16 259.37 106.36 260.51 C 142.39 277.62 179.74 291.81 217.69 304.03 C 215.67 276.76 211.54 249.08 199.85 224.11 C 194.12 212.21 186.99 200.78 177.38 191.61 C 170.52 185.02 162.09 179.84 152.76 177.70 C 144.14 175.83 134.98 177.94 127.59 182.59 M 460.57 253.82 C 464.43 264.91 466.12 276.67 466.54 288.37 C 466.88 305.70 466.19 323.58 459.87 339.92 C 457.99 345.36 453.24 351.16 446.88 350.32 C 441.35 348.77 437.59 343.78 435.34 338.76 C 431.84 330.41 430.03 321.47 428.73 312.55 C 427.14 300.49 426.67 288.23 428.05 276.13 C 404.69 290.44 380.17 302.76 355.45 314.55 C 361.68 334.35 369.72 354.43 384.58 369.42 C 393.68 378.72 405.73 386.46 419.18 386.20 C 431.58 385.26 442.35 377.21 449.65 367.54 C 458.18 356.10 463.89 342.70 467.09 328.83 C 473.38 302.56 472.30 275.08 467.78 248.62 C 465.35 250.31 462.97 252.08 460.57 253.82 M 446.42 264.16 C 442.62 269.95 442.87 277.28 442.86 283.94 C 443.35 297.86 442.56 312.79 450.09 325.17 C 455.40 317.54 455.24 307.83 455.05 298.94 C 454.72 288.38 454.07 277.61 450.53 267.56 C 449.84 265.96 448.61 262.82 446.42 264.16 M 101.20 266.98 C 102.78 277.20 103.97 287.49 106.16 297.60 C 109.25 313.04 114.67 327.98 121.99 341.90 C 129.96 356.82 141.14 370.62 156.17 378.83 C 166.46 384.53 179.70 384.87 189.99 378.99 C 198.68 373.79 204.99 365.31 209.14 356.20 C 213.61 346.61 214.98 336.02 216.51 325.66 C 216.74 320.78 216.78 315.89 216.87 311.01 C 214.44 310.41 212.01 309.79 209.59 309.17 C 211.40 322.88 212.74 337.22 208.41 350.61 C 206.96 354.89 204.81 359.91 199.96 361.11 C 194.26 362.54 189.35 357.97 186.49 353.57 C 175.17 337.12 173.70 316.49 172.27 297.19 C 166.73 294.60 160.88 292.83 155.17 290.68 C 136.74 283.82 119.14 274.99 101.20 266.98 M 188.82 302.43 C 191.10 316.93 191.29 332.42 199.14 345.34 C 204.83 332.94 200.49 319.25 199.74 306.33 C 196.12 304.98 192.47 303.71 188.82 302.43 M 372.06 430.99 C 353.40 439.75 333.37 445.32 313.07 448.63 C 287.56 452.72 261.31 449.57 236.70 442.14 C 228.63 439.63 221.54 433.65 212.78 433.72 C 213.24 433.92 214.14 434.31 214.59 434.51 C 216.64 436.77 218.67 439.14 221.34 440.68 C 235.20 448.92 250.94 453.67 266.88 455.73 C 270.53 456.24 274.26 456.28 277.86 457.21 C 285.93 457.68 294.04 457.73 302.11 457.18 C 306.67 456.09 311.39 456.12 316.00 455.33 C 340.96 451.61 365.55 443.35 386.83 429.62 C 390.87 427.27 394.01 423.77 396.50 419.86 C 396.46 419.42 396.38 418.55 396.33 418.11 C 388.14 422.20 380.39 427.16 372.06 430.99 Z" />
</g>
<g id="#ffffffff">
<path fill="#ffffff" opacity="1.00" d=" M 372.75 186.87 C 379.30 178.11 388.89 171.20 399.89 169.65 C 411.60 168.45 422.74 174.20 431.63 181.30 C 449.56 196.09 458.78 218.31 465.99 239.78 C 431.24 266.36 392.56 287.08 353.96 307.42 C 348.79 282.90 347.39 257.25 352.85 232.64 C 356.36 216.29 362.61 200.29 372.75 186.87 Z" />
<path fill="#ffffff" opacity="1.00" d=" M 127.59 182.59 C 134.98 177.94 144.14 175.83 152.76 177.70 C 162.09 179.84 170.52 185.02 177.38 191.61 C 186.99 200.78 194.12 212.21 199.85 224.11 C 211.54 249.08 215.67 276.76 217.69 304.03 C 179.74 291.81 142.39 277.62 106.36 260.51 C 104.16 259.37 100.91 257.95 101.42 254.94 C 101.36 236.09 103.59 216.54 112.75 199.74 C 116.44 193.11 120.96 186.58 127.59 182.59 Z" />
<path fill="#ffffff" opacity="1.00" d=" M 460.57 253.82 C 462.97 252.08 465.35 250.31 467.78 248.62 C 472.30 275.08 473.38 302.56 467.09 328.83 C 463.89 342.70 458.18 356.10 449.65 367.54 C 442.35 377.21 431.58 385.26 419.18 386.20 C 405.73 386.46 393.68 378.72 384.58 369.42 C 369.72 354.43 361.68 334.35 355.45 314.55 C 380.17 302.76 404.69 290.44 428.05 276.13 C 426.67 288.23 427.14 300.49 428.73 312.55 C 430.03 321.47 431.84 330.41 435.34 338.76 C 437.59 343.78 441.35 348.77 446.88 350.32 C 453.24 351.16 457.99 345.36 459.87 339.92 C 466.19 323.58 466.88 305.70 466.54 288.37 C 466.12 276.67 464.43 264.91 460.57 253.82 Z" />
<path fill="#ffffff" opacity="1.00" d=" M 446.42 264.16 C 448.61 262.82 449.84 265.96 450.53 267.56 C 454.07 277.61 454.72 288.38 455.05 298.94 C 455.24 307.83 455.40 317.54 450.09 325.17 C 442.56 312.79 443.35 297.86 442.86 283.94 C 442.87 277.28 442.62 269.95 446.42 264.16 Z" />
<path fill="#ffffff" opacity="1.00" d=" M 101.20 266.98 C 119.14 274.99 136.74 283.82 155.17 290.68 C 160.88 292.83 166.73 294.60 172.27 297.19 C 173.70 316.49 175.17 337.12 186.49 353.57 C 189.35 357.97 194.26 362.54 199.96 361.11 C 204.81 359.91 206.96 354.89 208.41 350.61 C 212.74 337.22 211.40 322.88 209.59 309.17 C 212.01 309.79 214.44 310.41 216.87 311.01 C 216.78 315.89 216.74 320.78 216.51 325.66 C 214.98 336.02 213.61 346.61 209.14 356.20 C 204.99 365.31 198.68 373.79 189.99 378.99 C 179.70 384.87 166.46 384.53 156.17 378.83 C 141.14 370.62 129.96 356.82 121.99 341.90 C 114.67 327.98 109.25 313.04 106.16 297.60 C 103.97 287.49 102.78 277.20 101.20 266.98 Z" />
<path fill="#ffffff" opacity="1.00" d=" M 188.82 302.43 C 192.47 303.71 196.12 304.98 199.74 306.33 C 200.49 319.25 204.83 332.94 199.14 345.34 C 191.29 332.42 191.10 316.93 188.82 302.43 Z" />
<path fill="#ffffff" opacity="1.00" d=" M 372.06 430.99 C 380.39 427.16 388.14 422.20 396.33 418.11 C 396.38 418.55 396.46 419.42 396.50 419.86 C 394.01 423.77 390.87 427.27 386.83 429.62 C 365.55 443.35 340.96 451.61 316.00 455.33 C 311.39 456.12 306.67 456.09 302.11 457.18 C 294.04 457.73 285.93 457.68 277.86 457.21 C 274.26 456.28 270.53 456.24 266.88 455.73 C 250.94 453.67 235.20 448.92 221.34 440.68 C 218.67 439.14 216.64 436.77 214.59 434.51 C 214.14 434.31 213.24 433.92 212.78 433.72 C 221.54 433.65 228.63 439.63 236.70 442.14 C 261.31 449.57 287.56 452.72 313.07 448.63 C 333.37 445.32 353.40 439.75 372.06 430.99 Z" />
</g>
</svg>
