<?xml version="1.0" encoding="UTF-8" ?>
<!DOCTYPE svg PUBLIC "-//W3C//DTD SVG 1.1//EN" "http://www.w3.org/Graphics/SVG/1.1/DTD/svg11.dtd">
<svg width="1524pt" height="264pt" viewBox="0 0 1524 264" version="1.1" xmlns="http://www.w3.org/2000/svg">
<g id="#000000ff">
<path fill="#000000" opacity="1.00" d=" M 233.66 0.00 L 237.75 0.00 C 254.32 0.97 270.40 9.31 280.23 22.77 C 293.46 40.30 298.19 62.52 300.06 83.98 C 301.32 94.61 300.57 105.32 300.81 115.99 C 312.50 121.51 323.82 128.77 331.87 139.05 C 334.99 143.79 338.35 149.28 337.47 155.19 C 335.22 165.67 330.00 175.26 323.89 183.97 C 316.91 193.78 308.56 202.57 299.46 210.43 C 271.29 234.94 235.68 250.03 199.00 256.07 C 189.15 257.84 179.14 258.39 169.19 259.31 C 158.62 259.95 147.98 259.73 137.55 257.79 C 114.71 255.47 92.47 249.09 71.11 240.86 C 62.79 237.12 54.59 233.03 46.90 228.10 C 32.75 219.40 18.74 209.73 8.34 196.59 C 5.01 191.98 0.88 186.56 2.45 180.53 C 5.80 169.16 13.02 159.55 19.59 149.88 C 8.88 126.59 2.27 100.66 5.26 74.91 C 7.37 56.78 14.14 38.44 27.57 25.63 C 36.89 16.39 49.96 11.29 63.04 11.38 C 77.64 11.13 92.06 17.35 102.15 27.85 C 117.49 43.43 125.02 64.91 128.93 86.01 C 142.87 83.19 157.10 82.06 171.31 82.05 C 172.01 60.14 178.08 37.50 192.67 20.64 C 202.74 8.50 217.96 1.04 233.66 0.00 M 218.66 35.77 C 208.70 39.00 202.47 48.25 198.01 57.17 C 187.76 78.69 187.20 103.67 192.17 126.65 C 217.93 113.08 243.80 99.32 266.92 81.47 C 261.79 66.46 255.23 50.72 242.03 41.03 C 235.44 36.27 226.71 32.77 218.66 35.77 M 34.17 50.13 C 25.61 62.19 23.51 77.52 23.73 91.98 C 23.56 93.74 25.45 94.56 26.73 95.27 C 50.86 106.75 75.89 116.26 101.31 124.47 C 99.51 100.52 95.04 75.46 80.16 55.89 C 74.75 48.87 67.59 42.70 58.88 40.35 C 49.64 37.82 39.47 42.37 34.17 50.13 M 263.32 90.93 C 268.17 105.73 268.24 121.74 265.90 137.02 C 264.96 142.15 263.79 147.42 260.99 151.89 C 259.26 154.21 256.08 156.43 253.14 155.02 C 249.02 153.16 246.77 148.89 245.40 144.81 C 241.20 132.26 240.43 118.77 241.52 105.66 C 226.15 115.61 209.51 123.36 193.15 131.51 C 197.73 146.10 203.93 161.03 215.93 171.11 C 222.79 177.23 232.90 181.58 241.94 177.84 C 253.03 173.53 259.73 162.73 264.13 152.23 C 272.12 131.62 271.61 108.86 268.17 87.35 C 266.55 88.54 264.94 89.74 263.32 90.93 M 251.63 116.00 C 251.72 123.68 252.16 131.86 256.38 138.55 C 258.51 135.06 259.53 131.03 259.58 126.96 C 259.76 118.73 259.44 110.38 257.34 102.38 C 256.72 100.42 256.23 97.87 253.89 97.30 C 250.73 103.03 251.61 109.73 251.63 116.00 M 23.54 99.59 C 25.58 116.04 28.55 132.70 36.29 147.56 C 41.86 158.68 49.95 169.13 61.24 174.87 C 68.91 178.70 78.88 178.07 85.55 172.48 C 93.23 166.20 97.65 156.66 99.18 147.00 C 100.17 141.09 101.30 135.14 100.82 129.12 C 99.21 128.68 97.60 128.24 95.99 127.80 C 96.93 137.99 98.36 148.96 93.76 158.52 C 92.54 161.58 88.88 163.72 85.70 162.25 C 81.45 160.28 79.22 155.80 77.21 151.82 C 72.40 141.91 71.95 130.70 70.80 119.98 C 68.99 118.75 66.84 118.19 64.82 117.42 C 50.61 112.58 37.13 105.91 23.54 99.59 M 81.95 123.30 C 83.55 133.00 83.51 143.49 89.00 152.05 C 92.45 143.65 89.80 134.63 89.27 125.97 C 86.85 125.03 84.40 124.16 81.95 123.30 M 207.51 207.52 C 192.64 214.96 176.40 219.54 159.92 221.56 C 145.48 223.16 130.84 221.27 116.89 217.45 C 110.46 215.99 105.08 211.71 98.55 210.58 C 100.24 212.84 102.25 214.89 104.76 216.24 C 115.19 222.20 127.11 225.17 139.01 226.17 C 163.66 228.28 188.94 222.78 210.43 210.52 C 214.43 208.05 219.03 205.53 220.61 200.78 C 215.94 202.42 211.94 205.39 207.51 207.52 Z" />
<path fill="#000000" opacity="1.00" d=" M 1015.50 49.68 C 1023.70 48.18 1032.33 48.90 1040.15 51.84 C 1038.83 56.73 1037.60 61.63 1036.24 66.51 C 1031.52 64.74 1026.15 63.41 1021.24 65.22 C 1017.68 66.55 1015.55 70.07 1014.80 73.64 C 1013.52 79.67 1014.13 85.88 1014.00 92.00 C 1020.16 92.01 1026.33 91.99 1032.50 92.00 C 1032.50 97.17 1032.50 102.33 1032.50 107.50 C 1026.33 107.51 1020.17 107.50 1014.02 107.50 C 1013.98 133.00 1014.01 158.50 1014.00 184.00 C 1007.58 184.00 1001.16 184.01 994.75 183.99 C 994.74 158.50 994.75 133.00 994.75 107.51 C 990.58 107.50 986.41 107.50 982.26 107.50 C 982.24 102.64 982.24 97.78 982.25 92.92 C 986.42 92.58 990.59 92.25 994.78 91.91 C 994.88 82.24 993.68 72.00 998.10 63.02 C 1001.26 56.05 1008.03 51.10 1015.50 49.68 Z" />
<path fill="#000000" opacity="1.00" d=" M 1198.19 67.24 C 1209.22 60.14 1222.94 57.57 1235.85 59.63 C 1246.08 61.42 1255.51 66.85 1262.59 74.40 C 1259.07 78.61 1255.57 82.83 1251.97 86.97 C 1245.65 80.66 1237.20 75.75 1228.03 75.96 C 1217.87 75.68 1207.80 80.64 1201.77 88.81 C 1194.00 99.06 1191.76 112.42 1192.16 125.01 C 1192.59 137.13 1195.57 149.93 1204.06 159.03 C 1211.37 167.09 1223.07 170.35 1233.63 168.31 C 1241.90 166.85 1248.94 161.71 1254.50 155.64 C 1258.08 159.80 1261.62 163.99 1265.20 168.16 C 1257.92 176.86 1247.78 183.35 1236.52 185.27 C 1222.64 187.56 1207.66 185.15 1196.04 176.93 C 1183.13 167.97 1175.48 153.03 1173.09 137.74 C 1171.19 125.24 1171.44 112.24 1174.85 100.01 C 1178.53 86.85 1186.55 74.65 1198.19 67.24 Z" />
<path fill="#000000" opacity="1.00" d=" M 1448.78 69.81 C 1461.91 57.71 1482.21 56.32 1498.38 62.51 C 1505.11 65.12 1511.18 69.25 1516.29 74.34 C 1512.95 78.56 1509.65 82.80 1506.24 86.94 C 1500.18 81.55 1492.81 77.37 1484.68 76.29 C 1477.73 75.45 1470.02 75.84 1464.26 80.26 C 1459.00 84.16 1457.33 91.92 1460.33 97.70 C 1462.54 102.09 1467.04 104.63 1471.28 106.75 C 1480.33 110.84 1489.59 114.47 1498.64 118.57 C 1505.48 121.79 1512.02 126.39 1515.89 133.04 C 1520.14 140.22 1520.78 149.01 1519.47 157.10 C 1517.20 168.99 1507.88 178.66 1496.66 182.72 C 1475.04 190.65 1449.31 184.36 1433.28 167.96 C 1437.04 163.33 1440.95 158.83 1444.84 154.31 C 1452.63 161.99 1462.84 167.58 1473.83 168.69 C 1480.99 169.31 1488.91 168.46 1494.67 163.77 C 1501.79 158.08 1502.06 145.88 1495.01 140.03 C 1489.37 135.46 1482.37 133.13 1475.84 130.15 C 1465.87 125.60 1454.74 122.35 1447.11 114.01 C 1435.39 102.17 1436.41 80.81 1448.78 69.81 Z" />
<path fill="#000000" opacity="1.00" d=" M 405.01 60.75 C 429.25 60.75 453.50 60.74 477.75 60.76 C 477.76 66.25 477.74 71.74 477.76 77.23 C 459.93 77.28 442.09 77.23 424.25 77.25 C 424.24 89.83 424.25 102.41 424.25 114.99 C 439.42 115.01 454.59 114.98 469.75 115.01 C 469.75 120.41 469.74 125.82 469.76 131.23 C 454.59 131.28 439.42 131.23 424.25 131.25 C 424.24 148.83 424.26 166.41 424.25 183.99 C 417.83 184.01 411.42 184.00 405.00 184.00 C 405.00 142.92 404.99 101.83 405.01 60.75 Z" />
<path fill="#000000" opacity="1.00" d=" M 1295.01 60.75 C 1302.45 60.74 1309.90 60.76 1317.36 60.74 C 1327.70 89.95 1338.68 118.94 1348.12 148.47 C 1351.50 139.79 1353.76 130.73 1356.87 121.95 C 1364.08 101.55 1371.22 81.13 1378.47 60.75 C 1385.97 60.75 1393.48 60.75 1400.99 60.75 C 1401.01 101.83 1401.00 142.92 1401.00 184.00 C 1394.99 184.00 1389.00 184.00 1383.00 184.00 C 1382.99 168.34 1383.00 152.68 1383.00 137.02 C 1383.09 127.33 1382.68 117.63 1383.51 107.96 C 1383.92 100.15 1385.03 92.40 1385.39 84.60 C 1375.07 113.88 1364.61 143.14 1353.85 172.27 C 1349.78 172.24 1345.71 172.24 1341.65 172.26 C 1330.87 143.13 1320.15 113.97 1310.03 84.60 C 1310.97 97.39 1312.69 110.15 1312.51 123.00 C 1312.50 143.33 1312.50 163.66 1312.51 183.99 C 1306.67 184.01 1300.83 184.00 1295.00 184.00 C 1295.00 142.92 1294.99 101.83 1295.01 60.75 Z" />
<path fill="#000000" opacity="1.00" d=" M 1064.02 66.49 C 1069.34 66.50 1074.67 66.49 1080.00 66.50 C 1080.00 75.00 1079.99 83.50 1080.00 92.00 C 1088.00 92.01 1096.00 91.99 1104.00 92.00 C 1103.99 97.17 1104.01 102.34 1103.99 107.51 C 1095.99 107.50 1088.00 107.50 1080.00 107.50 C 1080.02 123.01 1079.95 138.52 1080.04 154.02 C 1080.20 159.16 1080.88 165.36 1085.63 168.40 C 1090.99 171.77 1097.66 170.20 1103.22 168.21 C 1104.45 173.00 1105.62 177.80 1106.85 182.59 C 1097.48 185.90 1087.02 187.52 1077.36 184.49 C 1071.05 182.54 1065.91 177.53 1063.56 171.40 C 1061.19 165.58 1060.58 159.22 1060.74 152.99 C 1060.76 137.83 1060.74 122.67 1060.75 107.51 C 1056.24 107.50 1051.75 107.50 1047.25 107.50 C 1047.23 102.69 1047.26 97.89 1047.22 93.08 C 1052.10 92.63 1056.98 92.34 1061.86 91.82 C 1062.50 83.37 1063.20 74.93 1064.02 66.49 Z" />
<path fill="#000000" opacity="1.00" d=" M 536.92 91.90 C 543.20 88.91 550.36 89.89 556.99 90.90 C 555.79 96.86 554.76 102.85 553.56 108.81 C 548.66 107.37 543.26 106.43 538.35 108.35 C 530.27 111.35 524.90 119.06 522.11 126.90 C 521.85 145.93 522.08 164.97 522.00 184.00 C 515.58 184.00 509.17 184.01 502.75 183.99 C 502.75 153.33 502.75 122.67 502.75 92.00 C 507.95 92.03 513.15 91.90 518.36 92.09 C 518.82 97.49 519.37 102.88 519.95 108.26 C 524.23 101.62 529.47 95.09 536.92 91.90 Z" />
<path fill="#000000" opacity="1.00" d=" M 606.48 90.62 C 618.05 88.58 630.54 91.04 639.96 98.23 C 649.50 105.24 655.29 116.48 657.08 128.04 C 659.48 143.77 656.42 161.27 645.18 173.13 C 631.65 187.85 607.34 190.29 590.87 179.18 C 579.93 172.17 573.23 159.79 571.51 147.09 C 569.96 134.74 571.25 121.53 577.76 110.67 C 583.75 100.17 594.59 92.68 606.48 90.62 M 610.26 106.29 C 605.17 107.26 600.55 110.28 597.48 114.44 C 592.50 121.17 590.92 129.79 590.85 138.00 C 590.93 146.39 592.53 155.28 597.89 162.01 C 605.97 172.94 624.57 172.30 631.83 160.77 C 636.79 153.55 638.14 144.49 637.90 135.91 C 637.51 126.87 635.06 117.15 628.05 110.93 C 623.32 106.57 616.49 105.17 610.26 106.29 Z" />
<path fill="#000000" opacity="1.00" d=" M 696.03 98.14 C 704.84 90.80 717.05 88.72 728.16 90.52 C 731.08 91.07 733.95 92.12 736.97 92.02 C 746.81 91.99 756.65 92.00 766.50 92.00 C 766.50 96.83 766.50 101.67 766.50 106.50 C 760.92 106.51 755.35 106.50 749.79 106.50 C 759.10 119.40 755.95 139.74 742.69 148.75 C 732.68 155.71 719.30 156.71 707.94 152.75 C 703.40 155.17 701.12 162.16 704.39 166.53 C 706.76 169.34 710.64 170.10 714.13 170.41 C 726.41 170.95 738.92 169.44 751.02 172.24 C 757.60 173.74 764.26 177.66 766.69 184.28 C 769.81 193.09 767.64 203.45 761.28 210.30 C 752.90 219.61 740.19 223.62 728.04 224.77 C 716.14 225.63 703.44 225.12 692.79 219.13 C 686.28 215.58 681.59 208.52 681.95 200.96 C 681.64 192.12 688.15 184.84 695.30 180.54 C 690.66 177.18 686.87 172.03 686.96 166.06 C 686.24 158.44 691.41 151.94 697.17 147.63 C 689.74 141.74 684.76 132.59 684.96 122.99 C 684.65 113.60 688.67 104.08 696.03 98.14 M 716.22 104.15 C 710.05 105.52 705.29 110.92 704.02 117.02 C 702.16 124.61 703.89 133.68 710.21 138.76 C 716.48 144.01 726.81 143.52 732.42 137.50 C 738.86 130.84 739.49 119.81 735.17 111.87 C 731.64 105.28 723.30 102.26 716.22 104.15 M 698.79 196.01 C 697.97 200.07 699.68 204.44 702.97 206.94 C 708.33 211.12 715.38 211.99 721.96 212.25 C 729.85 212.25 738.25 210.65 744.41 205.39 C 748.22 202.15 750.60 196.47 748.26 191.69 C 746.42 187.86 741.80 186.84 737.96 186.36 C 727.35 185.32 716.62 186.88 706.05 185.17 C 702.55 187.86 699.48 191.52 698.79 196.01 Z" />
<path fill="#000000" opacity="1.00" d=" M 804.37 93.30 C 819.88 86.55 838.82 90.00 851.65 100.79 C 848.65 104.80 845.71 108.85 842.68 112.83 C 837.12 108.91 830.93 105.36 824.00 104.84 C 819.75 104.57 815.18 105.12 811.59 107.59 C 807.37 110.39 805.82 116.90 809.08 121.00 C 811.82 124.48 816.15 126.10 820.11 127.79 C 829.49 131.56 839.89 134.29 847.23 141.68 C 853.72 148.21 854.66 158.52 851.91 166.95 C 848.98 175.68 841.01 181.91 832.32 184.31 C 815.54 189.07 796.90 184.20 783.61 173.18 C 786.78 168.99 789.83 164.70 793.01 160.51 C 799.89 166.05 808.00 170.74 817.04 171.17 C 823.02 171.54 830.30 170.24 833.53 164.56 C 836.23 159.92 834.70 153.65 830.18 150.77 C 820.27 143.92 807.52 142.54 798.04 134.89 C 792.15 130.55 788.39 123.36 788.96 115.98 C 788.83 106.14 795.46 97.09 804.37 93.30 Z" />
<path fill="#000000" opacity="1.00" d=" M 910.44 90.62 C 922.00 88.58 934.49 91.03 943.91 98.20 C 953.48 105.20 959.29 116.45 961.08 128.03 C 963.48 143.77 960.42 161.29 949.15 173.16 C 935.63 187.85 911.35 190.28 894.89 179.19 C 883.91 172.17 877.21 159.75 875.50 147.01 C 873.97 134.67 875.26 121.49 881.77 110.65 C 887.76 100.17 898.57 92.69 910.44 90.62 M 914.30 106.28 C 908.69 107.33 903.71 110.87 900.64 115.63 C 896.14 122.49 894.78 130.91 894.86 138.98 C 895.07 147.30 896.85 156.11 902.39 162.61 C 906.88 168.05 914.29 170.63 921.22 169.72 C 927.55 168.98 933.37 165.09 936.60 159.60 C 941.58 151.38 942.55 141.31 941.58 131.92 C 940.71 123.78 937.68 115.28 931.04 110.09 C 926.39 106.35 920.08 105.28 914.30 106.28 Z" />
</g>
<g id="#ffffffff">
<path fill="#ffffff" opacity="1.00" d=" M 218.66 35.77 C 226.71 32.77 235.44 36.27 242.03 41.03 C 255.23 50.72 261.79 66.46 266.92 81.47 C 243.80 99.32 217.93 113.08 192.17 126.65 C 187.20 103.67 187.76 78.69 198.01 57.17 C 202.47 48.25 208.70 39.00 218.66 35.77 Z" />
<path fill="#ffffff" opacity="1.00" d=" M 34.17 50.13 C 39.47 42.37 49.64 37.82 58.88 40.35 C 67.59 42.70 74.75 48.87 80.16 55.89 C 95.04 75.46 99.51 100.52 101.31 124.47 C 75.89 116.26 50.86 106.75 26.73 95.27 C 25.45 94.56 23.56 93.74 23.73 91.98 C 23.51 77.52 25.61 62.19 34.17 50.13 Z" />
<path fill="#ffffff" opacity="1.00" d=" M 263.32 90.93 C 264.94 89.74 266.55 88.54 268.17 87.35 C 271.61 108.86 272.12 131.62 264.13 152.23 C 259.73 162.73 253.03 173.53 241.94 177.84 C 232.90 181.58 222.79 177.23 215.93 171.11 C 203.93 161.03 197.73 146.10 193.15 131.51 C 209.51 123.36 226.15 115.61 241.52 105.66 C 240.43 118.77 241.20 132.26 245.40 144.81 C 246.77 148.89 249.02 153.16 253.14 155.02 C 256.08 156.43 259.26 154.21 260.99 151.89 C 263.79 147.42 264.96 142.15 265.90 137.02 C 268.24 121.74 268.17 105.73 263.32 90.93 Z" />
<path fill="#ffffff" opacity="1.00" d=" M 251.63 116.00 C 251.61 109.73 250.73 103.03 253.89 97.30 C 256.23 97.87 256.72 100.42 257.34 102.38 C 259.44 110.38 259.76 118.73 259.58 126.96 C 259.53 131.03 258.51 135.06 256.38 138.55 C 252.16 131.86 251.72 123.68 251.63 116.00 Z" />
<path fill="#ffffff" opacity="1.00" d=" M 23.54 99.59 C 37.13 105.91 50.61 112.58 64.82 117.42 C 66.84 118.19 68.99 118.75 70.80 119.98 C 71.95 130.70 72.40 141.91 77.21 151.82 C 79.22 155.80 81.45 160.28 85.70 162.25 C 88.88 163.72 92.54 161.58 93.76 158.52 C 98.36 148.96 96.93 137.99 95.99 127.80 C 97.60 128.24 99.21 128.68 100.82 129.12 C 101.30 135.14 100.17 141.09 99.18 147.00 C 97.65 156.66 93.23 166.20 85.55 172.48 C 78.88 178.07 68.91 178.70 61.24 174.87 C 49.95 169.13 41.86 158.68 36.29 147.56 C 28.55 132.70 25.58 116.04 23.54 99.59 Z" />
<path fill="#ffffff" opacity="1.00" d=" M 81.95 123.30 C 84.40 124.16 86.85 125.03 89.27 125.97 C 89.80 134.63 92.45 143.65 89.00 152.05 C 83.51 143.49 83.55 133.00 81.95 123.30 Z" />
<path fill="#ffffff" opacity="1.00" d=" M 207.51 207.52 C 211.94 205.39 215.94 202.42 220.61 200.78 C 219.03 205.53 214.43 208.05 210.43 210.52 C 188.94 222.78 163.66 228.28 139.01 226.17 C 127.11 225.17 115.19 222.20 104.76 216.24 C 102.25 214.89 100.24 212.84 98.55 210.58 C 105.08 211.71 110.46 215.99 116.89 217.45 C 130.84 221.27 145.48 223.16 159.92 221.56 C 176.40 219.54 192.64 214.96 207.51 207.52 Z" />
</g>
</svg>
