<?xml version="1.0" encoding="UTF-8" ?>
<!DOCTYPE svg PUBLIC "-//W3C//DTD SVG 1.1//EN" "http://www.w3.org/Graphics/SVG/1.1/DTD/svg11.dtd">
<svg width="1458pt" height="202pt" viewBox="0 0 1458 202" version="1.1" xmlns="http://www.w3.org/2000/svg">
    <g id="#000000ff">
        <path fill="#FFFFFF" opacity="1.00"
              d=" M 193.04 0.00 L 197.40 0.00 C 210.45 0.88 223.01 7.68 230.56 18.42 C 240.92 32.72 244.41 50.63 245.65 67.91 C 246.41 75.35 245.77 82.82 246.04 90.28 C 253.62 93.82 260.79 98.40 266.78 104.28 C 270.47 108.02 273.79 112.63 274.33 118.01 C 274.59 122.85 272.78 127.49 270.77 131.79 C 264.26 145.16 253.97 156.28 242.68 165.78 C 220.56 184.17 192.98 195.32 164.69 199.69 C 155.31 201.16 145.82 201.68 136.34 202.00 L 133.83 202.00 C 114.74 201.18 95.77 197.58 77.72 191.31 C 66.92 187.95 56.68 182.93 47.15 176.86 C 36.10 169.96 25.17 162.26 17.30 151.71 C 14.99 148.41 12.45 144.35 13.82 140.17 C 16.45 131.48 22.02 124.13 27.03 116.70 C 20.00 101.11 15.09 84.22 15.33 66.99 C 15.54 53.00 19.01 38.70 27.10 27.11 C 32.67 19.11 40.80 12.63 50.36 10.21 C 64.31 6.37 80.03 10.53 90.35 20.65 C 102.98 32.84 108.98 50.11 112.27 66.96 C 123.09 64.77 134.14 63.89 145.16 63.82 C 145.81 46.29 150.77 28.11 162.85 14.92 C 170.50 6.28 181.58 0.97 193.04 0.00 M 184.16 6.41 C 174.06 9.17 166.01 16.78 160.37 25.33 C 150.43 41.26 148.24 60.61 148.50 79.01 C 148.62 90.05 151.90 100.73 152.84 111.66 C 150.33 110.73 149.82 108.02 149.16 105.75 C 145.97 93.27 144.62 80.37 144.52 67.51 C 134.14 67.32 123.82 68.56 113.59 70.23 C 113.93 76.30 114.88 82.36 114.37 88.45 C 110.73 83.44 112.23 76.83 110.60 71.14 C 106.45 55.87 101.66 40.08 91.02 27.95 C 84.01 19.76 73.96 13.95 63.09 13.23 C 53.00 12.46 42.64 16.34 35.64 23.67 C 27.50 32.20 22.56 43.45 20.52 54.98 C 19.14 66.59 18.56 78.54 21.54 89.96 C 23.37 100.00 27.31 109.44 30.72 118.98 C 24.87 125.92 19.38 133.89 18.34 143.15 C 20.43 151.13 27.25 156.57 33.02 161.98 C 48.37 174.91 66.55 184.32 85.67 190.31 C 116.19 199.95 149.41 200.20 180.32 192.22 C 207.67 185.12 233.57 170.77 252.37 149.45 C 258.84 141.88 264.82 133.60 268.06 124.09 C 269.30 120.41 269.34 116.13 267.15 112.80 C 262.20 104.40 253.63 99.18 245.38 94.47 C 244.87 98.56 245.53 103.27 242.51 106.55 C 241.65 100.05 242.36 93.50 242.32 86.99 C 242.42 70.34 240.91 53.42 235.22 37.66 C 231.80 28.41 226.66 19.48 218.94 13.15 C 209.42 5.33 195.91 2.68 184.16 6.41 Z"/>
        <path fill="#FFFFFF" opacity="1.00"
              d=" M 932.49 31.43 C 935.57 24.77 941.97 19.98 949.10 18.45 C 957.40 16.54 966.13 17.60 974.09 20.44 C 972.80 25.31 971.49 30.16 970.25 35.04 C 965.43 33.11 959.83 31.77 954.84 33.88 C 950.77 35.67 948.88 40.18 948.39 44.34 C 947.81 49.82 948.16 55.35 948.12 60.85 C 954.25 60.78 960.39 60.82 966.53 60.79 C 966.53 65.99 966.53 71.19 966.53 76.39 C 960.38 76.33 954.24 76.39 948.10 76.33 C 948.06 101.72 948.09 127.11 948.09 152.50 C 941.66 152.51 935.23 152.48 928.80 152.53 C 928.78 127.12 928.84 101.71 928.77 76.31 C 924.63 76.36 920.49 76.36 916.35 76.40 C 916.32 71.53 916.32 66.67 916.34 61.80 C 920.48 61.48 924.63 61.19 928.77 60.86 C 928.92 51.00 927.87 40.53 932.49 31.43 Z"/>
        <path fill="#FFFFFF" opacity="1.00"
              d=" M 182.46 23.77 C 190.89 21.93 199.69 25.35 205.85 31.11 C 216.86 41.16 222.62 55.69 225.23 70.09 C 228.04 86.79 227.81 104.48 221.49 120.39 C 217.79 129.52 211.36 138.32 201.82 141.85 C 193.49 145.15 183.80 142.48 177.17 136.81 C 166.49 127.89 160.72 114.57 157.39 101.36 C 152.90 82.83 152.72 62.50 160.83 44.91 C 165.13 35.66 172.09 26.40 182.46 23.77 M 181.93 27.87 C 174.40 30.40 169.59 37.33 166.19 44.12 C 157.95 60.95 157.58 80.61 161.44 98.66 C 181.45 87.96 201.64 77.29 219.68 63.42 C 215.85 52.32 211.14 40.82 201.83 33.16 C 196.41 28.74 188.92 25.27 181.93 27.87 M 216.92 70.75 C 220.22 81.13 220.47 92.20 219.38 102.96 C 218.76 107.72 217.91 112.54 215.82 116.90 C 214.67 119.26 212.14 121.57 209.32 120.83 C 205.94 119.55 204.02 116.13 202.90 112.89 C 199.61 103.08 199.08 92.57 199.74 82.31 C 187.77 89.99 174.90 96.10 162.17 102.39 C 165.74 113.47 170.38 124.85 179.34 132.70 C 184.50 137.38 191.77 140.98 198.83 138.91 C 207.38 136.18 213.11 128.44 216.59 120.54 C 223.77 104.05 223.51 85.35 220.53 67.91 C 219.32 68.86 218.12 69.80 216.92 70.75 M 208.13 79.23 C 207.27 83.40 207.68 87.69 207.71 91.91 C 207.81 97.46 208.50 103.20 211.57 107.97 C 214.57 102.44 214.12 95.99 213.78 89.93 C 213.42 85.17 212.94 80.23 210.67 75.95 C 208.70 75.60 208.61 77.89 208.13 79.23 Z"/>
        <path fill="#FFFFFF" opacity="1.00"
              d=" M 48.39 27.53 C 56.65 25.28 65.31 28.98 71.50 34.40 C 82.55 44.01 88.61 58.02 91.84 72.03 C 95.22 87.27 96.26 103.39 92.35 118.63 C 89.97 126.42 86.43 134.82 78.93 138.95 C 70.68 143.79 59.73 142.54 52.25 136.79 C 39.78 127.80 32.98 113.15 29.20 98.65 C 25.39 82.96 24.14 66.22 28.39 50.49 C 31.21 40.48 37.87 30.41 48.39 27.53 M 38.25 39.21 C 31.62 48.89 29.79 61.14 30.45 72.64 C 33.14 74.85 36.54 75.92 39.64 77.42 C 56.23 84.96 73.36 91.21 90.65 96.94 C 89.42 80.44 86.72 63.39 77.95 49.05 C 73.40 41.52 67.09 34.32 58.43 31.63 C 50.98 29.16 42.48 32.81 38.25 39.21 M 30.13 77.53 C 32.07 94.81 36.24 112.73 47.55 126.45 C 52.75 132.38 59.68 138.23 68.03 137.95 C 73.98 138.05 79.36 134.46 82.76 129.78 C 89.06 121.47 90.16 110.56 90.41 100.47 C 89.42 100.22 87.44 99.71 86.45 99.46 C 87.43 107.86 88.54 117.31 83.86 124.86 C 81.63 128.06 77.04 126.48 75.22 123.68 C 68.61 115.06 67.76 103.73 67.03 93.28 C 54.44 88.75 42.18 83.35 30.13 77.53 M 75.61 95.88 C 76.64 103.62 77.03 111.74 81.10 118.64 C 83.69 111.97 81.94 104.89 81.29 98.06 C 79.39 97.34 77.50 96.61 75.61 95.88 Z"/>
        <path fill="#FFFFFF" opacity="1.00"
              d=" M 1120.36 47.43 C 1130.94 33.69 1148.71 26.31 1165.90 27.64 C 1177.87 28.43 1188.98 34.43 1197.25 42.95 C 1193.74 47.07 1190.20 51.16 1186.81 55.37 C 1182.28 51.16 1177.18 47.32 1171.17 45.58 C 1159.30 42.07 1145.59 46.19 1137.70 55.74 C 1128.86 66.27 1126.32 80.63 1126.76 94.01 C 1127.34 106.39 1130.42 119.58 1139.41 128.65 C 1146.96 136.50 1158.72 139.34 1169.23 137.10 C 1177.14 135.46 1183.90 130.50 1189.25 124.62 C 1192.78 128.78 1196.31 132.94 1199.92 137.04 C 1192.51 145.31 1182.84 151.87 1171.78 153.88 C 1156.27 156.81 1139.30 153.16 1127.20 142.78 C 1114.98 132.52 1108.72 116.72 1107.21 101.14 C 1105.30 82.53 1108.54 62.44 1120.36 47.43 Z"/>
        <path fill="#FFFFFF" opacity="1.00"
              d=" M 1381.78 39.82 C 1393.13 28.00 1411.37 25.24 1426.76 29.19 C 1435.83 31.45 1444.05 36.42 1450.70 42.95 C 1447.33 47.03 1444.04 51.18 1440.81 55.36 C 1434.88 50.23 1427.85 46.08 1420.01 44.88 C 1412.79 43.76 1404.71 44.15 1398.64 48.63 C 1392.59 52.97 1391.27 62.36 1395.71 68.28 C 1398.66 72.21 1403.21 74.44 1407.58 76.45 C 1415.26 79.79 1423.00 82.99 1430.69 86.31 C 1437.06 89.12 1443.31 92.76 1447.78 98.22 C 1454.41 106.29 1455.97 117.70 1453.46 127.64 C 1450.87 137.89 1442.95 146.25 1433.38 150.46 C 1411.38 159.96 1384.33 153.57 1367.62 136.75 C 1371.40 132.25 1375.27 127.83 1378.97 123.26 C 1386.80 130.88 1396.96 136.42 1407.92 137.61 C 1415.12 138.25 1423.05 137.50 1428.94 132.91 C 1436.38 127.25 1436.80 114.52 1429.48 108.59 C 1423.84 104.02 1416.83 101.71 1410.31 98.73 C 1400.07 94.08 1388.59 90.71 1380.90 82.00 C 1370.21 70.54 1370.77 50.88 1381.78 39.82 Z"/>
        <path fill="#FFFFFF" opacity="1.00"
              d=" M 339.31 29.79 C 363.58 29.82 387.85 29.80 412.11 29.81 C 412.12 35.28 412.12 40.74 412.12 46.21 C 394.31 46.17 376.50 46.30 358.69 46.15 C 358.65 58.61 358.67 71.07 358.68 83.54 C 373.84 83.43 389.01 83.56 404.18 83.47 C 404.20 88.89 404.19 94.31 404.19 99.74 C 389.02 99.65 373.85 99.75 358.68 99.69 C 358.65 117.31 358.70 134.93 358.65 152.55 C 352.21 152.48 345.77 152.48 339.33 152.55 C 339.28 111.63 339.32 70.71 339.31 29.79 Z"/>
        <path fill="#FFFFFF" opacity="1.00"
              d=" M 1229.69 29.79 C 1237.12 29.82 1244.56 29.80 1252.01 29.81 C 1259.78 51.47 1267.66 73.10 1275.35 94.79 C 1278.03 102.26 1280.12 109.93 1282.94 117.34 C 1286.31 108.33 1288.78 99.01 1292.00 89.94 C 1299.10 69.89 1306.17 49.83 1313.30 29.79 C 1320.79 29.82 1328.29 29.81 1335.79 29.80 C 1335.78 70.71 1335.82 111.63 1335.77 152.54 C 1329.75 152.48 1323.74 152.48 1317.73 152.53 C 1317.72 134.68 1317.73 116.84 1317.73 98.99 C 1317.41 83.69 1319.05 68.45 1320.44 53.24 C 1318.40 56.25 1317.62 59.82 1316.44 63.19 C 1307.50 89.20 1297.86 114.96 1288.42 140.79 C 1284.46 140.68 1280.50 140.68 1276.55 140.78 C 1269.03 120.46 1261.55 100.12 1254.10 79.77 C 1250.79 70.99 1248.36 61.86 1244.57 53.28 C 1245.58 66.50 1247.20 79.71 1247.22 92.99 C 1247.19 112.84 1247.22 132.68 1247.20 152.53 C 1241.36 152.49 1235.52 152.48 1229.69 152.54 C 1229.67 111.63 1229.68 70.71 1229.69 29.79 Z"/>
        <path fill="#FFFFFF" opacity="1.00"
              d=" M 997.85 35.44 C 1003.18 35.47 1008.50 35.47 1013.84 35.43 C 1013.86 43.90 1013.84 52.37 1013.85 60.83 C 1021.79 60.78 1029.74 60.83 1037.69 60.80 C 1037.70 65.99 1037.70 71.19 1037.68 76.39 C 1029.74 76.33 1021.79 76.39 1013.85 76.34 C 1013.86 91.90 1013.82 107.46 1013.86 123.02 C 1013.98 128.20 1014.76 134.43 1019.59 137.43 C 1024.96 140.72 1031.54 139.14 1037.08 137.16 C 1038.20 141.92 1039.38 146.65 1040.60 151.38 C 1031.14 154.55 1020.61 156.42 1010.94 153.06 C 1004.66 150.95 999.66 145.80 997.41 139.61 C 994.28 131.81 994.62 123.27 994.66 115.03 C 994.64 102.12 994.69 89.20 994.63 76.29 C 990.20 76.37 985.78 76.36 981.36 76.39 C 981.34 71.58 981.34 66.76 981.35 61.94 C 986.11 61.59 990.87 61.23 995.63 60.88 C 996.53 52.42 997.16 43.93 997.85 35.44 Z"/>
        <path fill="#FFFFFF" opacity="1.00"
              d=" M 472.21 60.13 C 478.13 57.67 484.78 58.25 490.77 60.14 C 489.68 65.82 488.52 71.49 487.42 77.17 C 481.92 75.56 475.74 74.78 470.45 77.48 C 463.25 81.07 458.30 88.32 455.99 95.85 C 455.61 114.73 455.95 133.63 455.83 152.52 C 449.45 152.50 443.07 152.47 436.69 152.54 C 436.67 121.96 436.68 91.38 436.69 60.80 C 441.91 60.81 447.14 60.81 452.37 60.79 C 452.92 66.38 453.58 71.97 453.94 77.57 C 458.34 70.32 464.06 63.25 472.21 60.13 Z"/>
        <path fill="#FFFFFF" opacity="1.00"
              d=" M 538.41 59.64 C 550.60 56.71 564.09 59.44 573.97 67.24 C 583.24 74.40 588.90 85.51 590.59 96.99 C 592.43 109.39 590.95 122.63 584.69 133.65 C 579.68 142.54 571.36 149.55 561.63 152.71 C 548.18 157.21 532.47 154.52 521.52 145.42 C 512.37 138.01 506.93 126.72 505.47 115.15 C 503.65 101.69 505.97 87.19 513.98 75.98 C 519.77 67.79 528.63 61.87 538.41 59.64 M 544.46 74.67 C 539.36 75.54 534.70 78.45 531.59 82.56 C 526.35 89.50 524.73 98.47 524.73 106.98 C 524.83 115.18 526.37 123.82 531.41 130.51 C 539.15 141.64 557.75 141.55 565.23 130.19 C 570.80 122.40 572.02 112.39 571.53 103.06 C 570.99 94.64 568.57 85.72 562.25 79.76 C 557.60 75.28 550.75 73.54 544.46 74.67 Z"/>
        <path fill="#FFFFFF" opacity="1.00"
              d=" M 628.23 68.24 C 636.29 60.54 648.05 57.50 658.96 58.78 C 663.02 59.20 666.87 61.00 671.00 60.84 C 680.71 60.78 690.41 60.82 700.12 60.81 C 700.12 65.66 700.12 70.51 700.12 75.37 C 694.37 75.35 688.62 75.41 682.87 75.29 C 692.86 87.79 689.38 108.28 676.20 117.18 C 666.11 124.06 652.51 125.45 641.21 120.83 C 639.13 123.18 636.77 125.67 636.53 128.98 C 635.96 132.29 637.50 135.92 640.61 137.38 C 645.99 140.05 652.21 139.26 658.02 139.39 C 669.19 139.51 681.09 138.39 691.42 143.55 C 697.63 146.50 701.56 153.12 701.62 159.94 C 702.39 169.58 696.88 178.76 689.09 184.10 C 677.22 192.42 662.09 194.40 647.93 193.54 C 638.66 192.84 628.80 190.72 621.78 184.22 C 615.40 178.45 613.68 168.30 617.77 160.74 C 620.27 155.78 624.72 152.26 629.23 149.22 C 624.58 145.90 620.83 140.90 620.68 135.00 C 619.92 127.18 625.18 120.48 631.18 116.15 C 626.24 112.14 622.16 106.94 620.27 100.81 C 616.62 89.63 619.59 76.36 628.23 68.24 M 649.45 72.64 C 633.67 76.89 632.66 102.23 646.69 109.28 C 653.83 112.89 663.43 110.72 667.94 103.98 C 672.92 96.56 672.95 85.81 667.68 78.53 C 663.60 72.94 655.99 70.86 649.45 72.64 M 632.13 165.99 C 631.62 170.99 635.03 175.48 639.35 177.62 C 645.69 180.85 653.07 181.31 660.06 180.89 C 667.64 180.31 675.78 177.81 680.59 171.55 C 683.61 167.70 684.13 161.16 680.08 157.83 C 676.07 154.81 670.74 154.85 665.95 154.72 C 657.19 154.51 648.25 155.55 639.67 153.30 C 635.74 156.42 632.16 160.71 632.13 165.99 Z"/>
        <path fill="#FFFFFF" opacity="1.00"
              d=" M 743.76 59.88 C 758.00 56.10 773.57 60.11 784.93 69.29 C 781.98 73.29 778.97 77.25 776.07 81.28 C 769.44 76.33 761.40 72.31 752.89 73.34 C 747.43 73.60 741.43 77.00 740.79 82.90 C 739.75 87.94 743.81 92.02 747.96 94.04 C 758.36 99.35 770.62 101.39 779.49 109.45 C 789.28 118.18 788.80 134.74 780.24 144.15 C 773.94 151.26 764.27 154.32 755.02 154.75 C 741.36 155.61 727.87 150.39 717.20 142.07 C 720.32 137.91 723.38 133.69 726.46 129.49 C 732.43 134.26 739.20 138.47 746.86 139.69 C 752.40 140.59 758.58 140.48 763.44 137.34 C 768.46 134.20 770.16 126.47 766.21 121.86 C 762.45 117.46 756.81 115.45 751.61 113.33 C 743.18 110.08 734.18 106.89 727.94 100.03 C 721.02 92.54 720.90 80.51 726.11 72.06 C 729.93 65.72 736.72 61.70 743.76 59.88 Z"/>
        <path fill="#FFFFFF" opacity="1.00"
              d=" M 842.41 59.62 C 854.06 56.87 866.88 59.22 876.60 66.27 C 885.73 72.76 891.73 83.05 893.95 93.94 C 896.38 105.78 895.54 118.48 890.66 129.61 C 886.09 140.05 877.25 148.65 866.44 152.41 C 853.47 157.04 838.24 155.00 827.16 146.76 C 817.48 139.73 811.45 128.48 809.63 116.78 C 807.59 103.71 809.28 89.63 816.38 78.26 C 822.11 68.90 831.71 62.03 842.41 59.62 M 845.37 75.42 C 839.53 77.32 835.01 82.09 832.47 87.57 C 828.94 95.18 828.17 103.83 828.91 112.11 C 829.65 119.76 832.04 127.74 837.75 133.20 C 844.09 139.44 854.57 140.56 862.29 136.30 C 867.43 133.55 870.91 128.49 872.89 123.13 C 875.56 115.76 876.04 107.74 875.17 100.00 C 874.26 92.38 871.58 84.48 865.64 79.30 C 860.22 74.47 852.19 73.15 845.37 75.42 Z"/>
        <path fill="#FFFFFF" opacity="1.00"
              d=" M 172.74 161.86 C 176.44 159.99 179.92 157.70 183.80 156.20 C 181.78 160.64 177.34 162.97 173.28 165.21 C 156.22 174.21 136.41 178.04 117.24 175.78 C 108.75 174.80 100.33 172.38 92.92 168.06 C 91.09 167.10 89.82 165.44 88.64 163.79 C 92.00 164.76 95.16 166.28 98.34 167.70 C 122.52 176.81 149.91 173.04 172.74 161.86 Z"/>
    </g>
</svg>
