<?xml version="1.0" encoding="UTF-8" ?>
<!DOCTYPE svg PUBLIC "-//W3C//DTD SVG 1.1//EN" "http://www.w3.org/Graphics/SVG/1.1/DTD/svg11.dtd">
<svg width="318pt" height="318pt" viewBox="0 0 318 318" version="1.1" xmlns="http://www.w3.org/2000/svg">
<g id="#000000ff">
<path fill="#000000" opacity="1.00" d=" M 155.31 0.00 L 162.63 0.00 C 193.58 0.71 224.25 10.61 249.63 28.35 C 277.74 47.80 299.30 76.53 309.98 109.02 C 314.78 123.32 317.26 138.33 318.00 153.38 L 318.00 161.73 C 317.51 191.75 308.35 221.57 291.72 246.58 C 274.51 272.70 249.43 293.55 220.58 305.63 C 202.29 313.37 182.52 317.46 162.69 318.00 L 155.38 318.00 C 124.91 317.30 94.71 307.70 69.55 290.47 C 43.44 272.73 22.82 247.05 11.19 217.70 C 4.09 199.91 0.37 180.83 0.00 161.69 L 0.00 156.34 C 0.38 135.65 4.72 115.02 12.96 96.03 C 25.21 67.56 46.00 42.89 71.94 25.94 C 96.58 9.70 125.82 0.70 155.31 0.00 M 138.57 6.71 C 100.20 11.65 64.21 31.95 39.87 61.98 C 17.89 88.79 5.45 123.24 5.39 157.92 C 5.07 186.35 12.97 214.78 27.82 239.02 C 44.48 266.32 69.83 288.26 99.35 300.61 C 129.96 313.63 164.84 316.10 197.05 307.89 C 224.76 300.85 250.38 285.85 270.07 265.12 C 293.22 241.08 308.12 209.27 311.69 176.09 C 315.12 145.67 309.26 114.25 294.86 87.21 C 278.93 57.00 252.63 32.37 221.37 18.57 C 195.59 7.00 166.56 3.00 138.57 6.71 Z" />
<path fill="#000000" opacity="1.00" d=" M 185.67 74.70 C 193.30 66.64 203.95 61.68 215.01 60.92 C 229.14 60.25 243.27 67.13 251.64 78.50 C 262.69 93.22 266.17 112.00 267.32 129.97 C 268.05 136.96 267.29 143.97 267.65 150.97 C 273.98 153.67 279.78 157.53 285.10 161.88 C 289.66 165.72 293.89 170.46 295.51 176.34 C 296.62 181.36 294.88 186.46 292.90 191.02 C 286.53 204.68 276.21 216.08 264.79 225.73 C 239.91 246.59 208.14 258.24 176.00 261.27 C 164.10 262.19 152.01 263.03 140.19 260.83 C 124.38 259.31 109.00 254.99 94.11 249.60 C 87.94 247.57 82.24 244.44 76.48 241.52 C 63.57 233.77 50.42 225.63 40.84 213.78 C 38.03 209.89 34.31 205.16 36.29 200.08 C 39.03 191.63 44.45 184.44 49.35 177.15 C 40.51 158.04 35.30 136.56 38.68 115.50 C 40.98 101.18 47.31 86.74 59.05 77.72 C 70.41 68.78 86.73 67.36 99.85 73.07 C 110.61 77.64 118.58 86.92 124.04 97.01 C 129.04 106.59 132.35 117.01 134.21 127.64 C 145.04 125.44 156.08 124.57 167.12 124.52 C 167.64 106.58 172.98 87.88 185.67 74.70 M 205.11 67.54 C 196.22 69.98 189.24 76.66 183.75 83.77 C 172.27 100.37 170.00 121.28 170.41 140.94 C 170.57 147.06 171.93 153.05 172.63 159.11 C 173.13 163.26 175.02 167.27 174.55 171.50 C 172.34 172.29 172.28 169.39 171.56 168.13 C 168.02 155.17 166.51 141.68 166.45 128.26 C 156.12 127.91 145.81 129.17 135.66 130.93 C 135.82 136.85 136.87 142.74 136.44 148.67 C 136.07 148.28 135.33 147.49 134.96 147.10 C 133.47 141.89 133.81 136.36 132.53 131.11 C 129.09 119.62 125.97 107.81 119.50 97.57 C 113.37 87.24 104.00 78.15 92.05 75.20 C 80.64 71.92 67.73 75.08 59.10 83.24 C 49.90 92.10 44.64 104.44 42.55 116.89 C 41.76 127.50 40.72 138.43 43.50 148.84 C 45.31 159.00 48.74 168.78 52.72 178.27 C 53.79 180.61 50.55 181.78 49.58 183.53 C 45.26 189.60 41.27 196.43 40.55 203.99 C 43.26 212.08 50.17 217.70 56.25 223.28 C 80.26 242.79 110.37 254.39 141.06 257.42 C 169.69 260.07 199.11 255.88 225.57 244.51 C 249.80 233.77 272.15 216.84 285.63 193.68 C 288.46 187.69 292.76 180.53 289.09 173.98 C 284.24 165.37 275.54 159.74 267.02 155.20 C 265.96 158.91 267.70 164.15 264.07 166.63 C 263.27 161.45 263.89 156.21 263.87 151.01 C 264.24 133.20 262.90 115.03 256.79 98.17 C 252.72 87.38 246.25 76.82 236.11 70.80 C 226.89 65.35 215.26 63.99 205.11 67.54 Z" />
<path fill="#000000" opacity="1.00" d=" M 203.52 84.75 C 211.78 82.64 220.56 85.68 226.81 91.21 C 237.67 100.68 243.53 114.60 246.46 128.43 C 249.69 145.51 249.71 163.70 243.46 180.12 C 239.77 189.38 233.52 198.49 223.86 202.17 C 215.69 205.49 206.14 203.14 199.48 197.65 C 188.64 188.90 182.79 175.59 179.38 162.40 C 174.86 144.02 174.54 123.88 182.37 106.33 C 186.59 97.08 193.31 87.73 203.52 84.75 M 203.55 88.73 C 196.03 91.21 191.40 98.23 187.95 104.93 C 179.86 121.70 179.34 141.20 183.30 159.16 C 203.29 148.66 223.32 137.95 241.28 124.15 C 237.52 112.69 232.53 100.87 222.75 93.23 C 217.43 89.19 210.16 86.06 203.55 88.73 M 238.50 131.42 C 241.81 141.19 242.07 151.76 241.23 161.95 C 240.62 167.22 239.78 172.58 237.51 177.41 C 236.28 180.07 232.98 182.65 230.05 180.85 C 225.88 178.50 224.58 173.46 223.40 169.16 C 221.36 160.62 220.80 151.69 221.61 142.94 C 209.57 150.42 196.85 156.72 184.08 162.85 C 187.68 174.78 192.95 187.01 203.11 194.81 C 208.42 199.02 215.98 201.72 222.48 198.66 C 231.27 195.01 236.33 186.18 239.67 177.72 C 245.27 162.06 244.99 144.93 242.24 128.71 C 240.97 129.58 239.72 130.48 238.50 131.42 M 231.03 136.85 C 228.93 140.51 229.39 144.95 229.39 149.01 C 229.55 155.52 229.43 162.56 233.10 168.26 C 235.51 165.00 235.67 160.85 235.69 156.96 C 235.65 150.96 235.32 144.87 233.54 139.10 C 233.10 138.12 232.55 135.89 231.03 136.85 Z" />
<path fill="#000000" opacity="1.00" d=" M 69.43 88.68 C 78.01 85.74 87.26 89.51 93.74 95.23 C 104.28 104.45 110.19 117.77 113.54 131.11 C 117.22 146.78 118.40 163.37 114.45 179.10 C 111.93 186.98 108.41 195.64 100.61 199.61 C 92.63 204.13 82.32 202.94 75.02 197.62 C 62.00 188.63 55.12 173.38 51.28 158.50 C 47.99 144.60 46.84 129.97 49.53 115.88 C 51.70 104.62 57.91 92.55 69.43 88.68 M 61.11 99.10 C 53.91 108.71 52.30 121.27 52.52 132.97 C 53.48 134.55 55.54 134.99 57.08 135.87 C 75.13 144.26 93.76 151.38 112.72 157.42 C 111.46 140.33 108.53 122.61 99.00 108.00 C 94.58 101.12 88.52 94.75 80.48 92.35 C 73.44 90.13 65.41 93.23 61.11 99.10 M 52.42 138.21 C 53.72 148.28 55.18 158.45 59.00 167.93 C 63.25 178.92 69.77 189.86 80.27 195.85 C 86.11 199.33 93.81 199.43 99.48 195.55 C 106.10 190.85 109.74 182.98 111.08 175.15 C 111.79 170.50 112.87 165.77 112.37 161.05 C 111.40 160.81 109.48 160.33 108.52 160.09 C 109.39 167.00 110.08 174.22 108.07 181.01 C 107.29 183.24 106.37 186.00 103.90 186.84 C 100.96 187.95 98.24 185.54 96.69 183.28 C 90.76 174.75 89.93 163.99 89.22 153.94 C 86.93 152.73 84.42 152.02 82.01 151.11 C 71.87 147.46 62.22 142.66 52.42 138.21 M 97.77 156.59 C 98.91 164.05 98.95 172.13 103.10 178.71 C 106.13 172.42 103.72 165.24 103.44 158.60 C 101.56 157.91 99.66 157.24 97.77 156.59 Z" />
<path fill="#000000" opacity="1.00" d=" M 200.81 218.85 C 202.16 217.99 203.63 217.36 205.18 216.95 C 204.09 220.63 200.33 222.34 197.39 224.33 C 179.52 234.41 158.35 238.64 137.99 235.96 C 129.84 234.89 121.83 232.45 114.73 228.27 C 113.13 227.38 111.95 225.95 110.80 224.57 C 115.46 224.99 119.18 228.19 123.66 229.30 C 136.67 233.08 150.58 234.53 163.98 232.01 C 176.87 229.75 189.56 225.63 200.81 218.85 Z" />
</g>
</svg>
